<svg width="24" height="24" viewBox="0 0 24 24" fill="none" xmlns="http://www.w3.org/2000/svg">
<path fill-rule="evenodd" clip-rule="evenodd" d="M12 2C6.47715 2 2 6.47715 2 12C2 14.6406 3.02347 17.0421 4.69536 18.8296L10.6314 12.0456L7 8.41421V13C7 13.5523 6.55228 14 6 14C5.44772 14 5 13.5523 5 13V6C5 5.44772 5.44772 5 6 5H18C18.5523 5 19 5.44772 19 6V18C19 18.5523 18.5523 19 18 19H7.20377L6.20002 20.1471C7.83578 21.3137 9.83775 22 12 22C17.5228 22 22 17.5228 22 12C22 6.47715 17.5228 2 12 2ZM8.95377 17H17V7H8.41421L12.7071 11.2929C13.0794 11.6652 13.0993 12.2623 12.7526 12.6585L8.95377 17ZM0 12C0 5.37258 5.37258 0 12 0C18.6274 0 24 5.37258 24 12C24 18.6274 18.6274 24 12 24C5.37258 24 0 18.6274 0 12Z" fill="#0088CC"/>
</svg>
