<svg width="24" height="24" viewBox="0 0 24 24" fill="none" xmlns="http://www.w3.org/2000/svg">
<g clip-path="url(#clip0)">
<path fill-rule="evenodd" clip-rule="evenodd" d="M11.6078 2.98604C11.36 2.55282 11.6711 1.9893 12.2142 2.00017ZM11.6078 2.98604L18.9525 15.7726C19.4999 16.7278 18.8114 17.9159 17.7115 17.9159H6.89982C5.82275 17.9159 5.13837 16.7704 5.63373 15.8228L9.24745 8.91349C9.50342 8.4241 10.1076 8.23487 10.597 8.49084C11.0864 8.7468 11.2757 9.35103 11.0197 9.84041L7.84206 15.9159H16.7283L15.6094 13.9679H12.0913C11.5391 13.9679 11.0913 13.5201 11.0913 12.9679C11.0913 12.4156 11.5391 11.9679 12.0913 11.9679H14.4606L9.87358 3.9822C8.82987 2.16226 10.2002 -0.0405145 12.2542 0.000566112C15.1724 0.0607728 18.0791 1.18418 20.3417 3.37244C23.5869 6.51134 24.6798 11.0354 23.5932 15.1056C23.4507 15.6392 22.9027 15.9563 22.3691 15.8139C21.8355 15.6714 21.5184 15.1234 21.6609 14.5898C22.5678 11.1925 21.6541 7.42436 18.9513 4.81004C17.0646 2.98533 14.6466 2.05035 12.2142 2.00017M4.21874 4.16029C4.64145 4.51573 4.69598 5.14654 4.34054 5.56925C0.987828 9.5565 1.24823 15.5129 5.04938 19.1871C8.13483 22.1752 12.654 22.7747 16.3193 21.0233C16.8176 20.7852 17.4146 20.9961 17.6527 21.4944C17.8908 21.9928 17.6799 22.5898 17.1816 22.8279C12.7887 24.927 7.36609 24.2143 3.65937 20.6251C-0.903075 16.215 -1.2141 9.06753 2.80978 4.2821C3.16522 3.85939 3.79603 3.80485 4.21874 4.16029Z" fill="#0088CC"/>
</g>
<defs>
<clipPath id="clip0">
<rect width="24" height="24" fill="white"/>
</clipPath>
</defs>
</svg>
